# This file uses centimeters as units for non-parametric coordinates.

mtllib Concrete_Slab.mtl
g default
v 8.194671 1.054420 -2.662610
v 6.970803 1.054420 -5.064585
v 5.064585 1.054420 -6.970803
v 2.662609 1.054420 -8.194670
v 0.000000 1.054420 -8.616385
v -2.662609 1.054420 -8.194669
v -5.064584 1.054420 -6.970801
v -6.970801 1.054420 -5.064583
v -8.194667 1.054420 -2.662609
v -8.616383 1.054420 0.000000
v -8.194667 1.054420 2.662609
v -6.970800 1.054420 5.064583
v -5.064583 1.054420 6.970800
v -2.662609 1.054420 8.194666
v -0.000000 1.054420 8.616382
v 2.662608 1.054420 8.194666
v 5.064582 1.054420 6.970799
v 6.970799 1.054420 5.064582
v 8.194665 1.054420 2.662608
v 8.616381 1.054420 0.000000
v 8.194671 2.180773 -2.662610
v 6.970803 2.180773 -5.064585
v 5.064585 2.180773 -6.970803
v 2.662609 2.180773 -8.194670
v 0.000000 2.180773 -8.616385
v -2.662609 2.180773 -8.194669
v -5.064584 2.180773 -6.970801
v -6.970801 2.180773 -5.064583
v -8.194667 2.180773 -2.662609
v -8.616383 2.180773 0.000000
v -8.194667 2.180773 2.662609
v -6.970800 2.180773 5.064583
v -5.064583 2.180773 6.970800
v -2.662609 2.180773 8.194666
v -0.000000 2.180773 8.616382
v 2.662608 2.180773 8.194666
v 5.064582 2.180773 6.970799
v 6.970799 2.180773 5.064582
v 8.194665 2.180773 2.662608
v 8.616381 2.180773 0.000000
v 0.000000 1.054420 0.000000
v 0.000000 2.180773 0.000000
v 6.970803 2.132344 -5.064585
v 8.194671 2.132344 -2.662610
v 8.616381 2.132344 0.000000
v 8.194665 2.132344 2.662608
v 6.970799 2.132344 5.064582
v 5.064582 2.132344 6.970799
v 2.662608 2.132344 8.194666
v -0.000000 2.132344 8.616382
v -2.662609 2.132344 8.194667
v -5.064583 2.132344 6.970800
v -6.970800 2.132344 5.064583
v -8.194667 2.132344 2.662609
v -8.616383 2.132344 0.000000
v -8.194667 2.132344 -2.662609
v -6.970801 2.132344 -5.064583
v -5.064584 2.132344 -6.970801
v -2.662609 2.132344 -8.194669
v 0.000000 2.132344 -8.616385
v 2.662609 2.132344 -8.194670
v 5.064585 2.132344 -6.970803
v 6.970803 2.105066 -5.064585
v 8.194671 2.105066 -2.662610
v 8.616381 2.105066 0.000000
v 8.194665 2.105066 2.662608
v 6.970799 2.105066 5.064582
v 5.064582 2.105066 6.970799
v 2.662608 2.105066 8.194666
v -0.000000 2.105066 8.616382
v -2.662609 2.105066 8.194667
v -5.064583 2.105066 6.970800
v -6.970800 2.105066 5.064583
v -8.194667 2.105066 2.662609
v -8.616383 2.105066 0.000000
v -8.194667 2.105066 -2.662609
v -6.970801 2.105066 -5.064583
v -5.064584 2.105066 -6.970801
v -2.662609 2.105066 -8.194669
v 0.000000 2.105066 -8.616385
v 2.662609 2.105066 -8.194670
v 5.064585 2.105066 -6.970803
v 6.970803 1.090594 -5.064585
v 8.194671 1.090594 -2.662610
v 8.616381 1.090594 0.000000
v 8.194665 1.090594 2.662608
v 6.970799 1.090594 5.064582
v 5.064582 1.090594 6.970799
v 2.662608 1.090594 8.194666
v -0.000000 1.090594 8.616382
v -2.662609 1.090594 8.194666
v -5.064583 1.090594 6.970800
v -6.970800 1.090594 5.064583
v -8.194667 1.090594 2.662609
v -8.616383 1.090594 0.000000
v -8.194667 1.090594 -2.662609
v -6.970801 1.090594 -5.064583
v -5.064584 1.090594 -6.970801
v -2.662609 1.090594 -8.194669
v 0.000000 1.090594 -8.616385
v 2.662609 1.090594 -8.194670
v 5.064585 1.090594 -6.970803
v 6.970803 1.130700 -5.064585
v 8.194671 1.130700 -2.662610
v 8.616381 1.130700 0.000000
v 8.194665 1.130700 2.662608
v 6.970799 1.130700 5.064583
v 5.064582 1.130700 6.970799
v 2.662608 1.130700 8.194666
v -0.000000 1.130700 8.616382
v -2.662609 1.130700 8.194666
v -5.064583 1.130700 6.970800
v -6.970800 1.130700 5.064583
v -8.194667 1.130700 2.662609
v -8.616383 1.130700 0.000000
v -8.194667 1.130700 -2.662609
v -6.970801 1.130700 -5.064584
v -5.064584 1.130700 -6.970801
v -2.662609 1.130700 -8.194669
v 0.000000 1.130700 -8.616385
v 2.662609 1.130700 -8.194670
v 5.064585 1.130700 -6.970803
vt 1.558181 0.001992
vt 1.697010 0.001992
vt 1.697010 0.033981
vt 1.558181 0.033981
vt 1.697010 0.069446
vt 1.558181 0.069446
vt 1.404288 0.001992
vt 1.404288 0.033981
vt 1.697010 0.931061
vt 1.558181 0.931061
vt 1.404288 0.069446
vt 1.250395 0.001992
vt 1.250395 0.033981
vt 1.697010 0.955183
vt 1.558181 0.955183
vt 1.404288 0.931061
vt 1.250395 0.069446
vt 1.111566 0.001992
vt 1.111566 0.033981
vt 1.697010 0.998008
vt 1.558181 0.998008
vt 1.404288 0.955183
vt 1.250395 0.931061
vt 1.111566 0.069446
vt 1.001391 0.001992
vt 1.001391 0.033981
vt 1.404288 0.998008
vt 1.250395 0.955183
vt 1.111566 0.931061
vt 1.250395 0.998008
vt 1.111566 0.955183
vt 1.111566 0.998008
vt -0.998388 0.001992
vt -0.888213 0.001992
vt -0.888213 0.033981
vt -0.998388 0.033981
vt -0.749384 0.001992
vt -0.749384 0.033981
vt -0.888213 0.069446
vt -0.998388 0.069446
vt -0.595491 0.001992
vt -0.595491 0.033981
vt -0.749384 0.069446
vt -0.888213 0.931061
vt -0.998388 0.931061
vt -0.441598 0.001992
vt -0.441598 0.033981
vt -0.595491 0.069446
vt -0.749384 0.931061
vt -0.302770 0.001992
vt -0.302770 0.033981
vt -0.441598 0.069446
vt -0.595491 0.931061
vt -0.749384 0.955183
vt -0.888213 0.955183
vt -0.192594 0.001992
vt -0.192594 0.033981
vt -0.302770 0.069446
vt -0.441598 0.931061
vt -0.595491 0.955183
vt -0.749384 0.998008
vt -0.888213 0.998008
vt -0.302770 0.931061
vt -0.441598 0.955183
vt -0.595491 0.998008
vt -0.998388 0.955183
vt -0.998388 0.998008
vt -0.302770 0.955183
vt -0.441598 0.998008
vt -0.302770 0.998008
vt -0.192594 0.955183
vt -0.192594 0.998008
vt 0.902897 -0.792722
vt 0.973634 -0.653893
vt 0.500000 -0.500000
vt 0.998008 -0.500000
vt 0.792722 -0.902897
vt 0.973634 -0.346107
vt 0.653893 -0.973634
vt 0.902897 -0.207278
vt 0.500000 -0.998008
vt 0.792722 -0.097103
vt 0.346107 -0.973634
vt 0.653893 -0.026366
vt 0.207278 -0.902897
vt 0.500000 -0.001992
vt 0.097103 -0.792722
vt 0.346107 -0.026366
vt 0.026366 -0.653893
vt 0.207278 -0.097103
vt 0.001992 -0.500000
vt 0.097103 -0.207278
vt 0.026366 -0.346107
vt 0.973634 1.653892
vt 0.902897 1.792722
vt 0.500000 1.500000
vt 0.792722 1.902896
vt 0.998008 1.500000
vt 0.653893 1.973634
vt 0.973634 1.346107
vt 0.500000 1.998008
vt 0.902897 1.207277
vt 0.346107 1.973634
vt 0.792722 1.097103
vt 0.207278 1.902896
vt 0.653893 1.026365
vt 0.097103 1.792722
vt 0.500000 1.001992
vt 0.026366 1.653892
vt 0.346107 1.026365
vt 0.001992 1.500000
vt 0.207278 1.097103
vt 0.026366 1.346107
vt 0.097103 1.207277
vt 0.807406 2.998007
vt 0.697230 2.998007
vt 0.697230 2.966018
vt 0.807406 2.966018
vt 0.558401 2.998007
vt 0.558401 2.966018
vt 0.697230 2.930554
vt 0.807406 2.930554
vt 0.404508 2.998007
vt 0.404508 2.966018
vt 0.558401 2.930554
vt 0.697230 2.068939
vt 0.807406 2.068939
vt 0.250616 2.998007
vt 0.250616 2.966018
vt 0.404508 2.930554
vt 0.558401 2.068939
vt 0.697230 2.044817
vt 0.807406 2.044817
vt 0.111787 2.998007
vt 0.111787 2.966018
vt 0.250616 2.930554
vt 0.404508 2.068939
vt 0.558401 2.044817
vt 0.697230 2.001992
vt 0.807406 2.001992
vt 0.111787 2.930554
vt 0.250616 2.068939
vt 0.404508 2.044817
vt 0.558401 2.001992
vt 0.111787 2.068939
vt 0.250616 2.044817
vt 0.404508 2.001992
vt 0.111787 2.044817
vt 0.250616 2.001992
vt 0.001612 2.068939
vt 0.001612 2.044817
vt 0.111787 2.001992
vt 0.111787 0.001992
vt 0.250616 0.001992
vt 0.250616 0.033981
vt 0.111787 0.033981
vt 0.404508 0.001992
vt 0.404508 0.033981
vt 0.250616 0.069446
vt 0.111787 0.069446
vt 0.558401 0.001992
vt 0.558401 0.033981
vt 0.404508 0.069446
vt 0.250616 0.931061
vt 0.111787 0.931061
vt 0.001612 0.033981
vt 0.001612 0.069446
vt 0.697230 0.001992
vt 0.697230 0.033981
vt 0.558401 0.069446
vt 0.404508 0.931061
vt 0.250616 0.955183
vt 0.111787 0.955183
vt 0.001612 0.931061
vt 0.697230 0.069446
vt 0.558401 0.931061
vt 0.404508 0.955183
vt 0.250616 0.998008
vt 0.111787 0.998008
vt 0.001612 0.955183
vt 0.807405 0.033981
vt 0.807405 0.069446
vt 0.697230 0.931061
vt 0.558401 0.955183
vt 0.404508 0.998008
vt 0.807405 0.931061
vt 0.697230 0.955183
vt 0.558401 0.998008
vt 0.807405 0.955183
vt 0.697230 0.998008
vt 0.807405 0.998008
vn 0.951057 0.000000 -0.309016
vn 0.809017 0.000000 -0.587785
vn 0.809017 0.000000 -0.587785
vn 0.951057 0.000000 -0.309016
vn 0.587785 0.000000 -0.809017
vn 0.587785 0.000000 -0.809017
vn 0.309017 0.000000 -0.951057
vn 0.309017 0.000000 -0.951057
vn -0.000000 0.000000 -1.000000
vn -0.000000 0.000000 -1.000000
vn -0.309017 0.000000 -0.951056
vn -0.309017 0.000000 -0.951056
vn -0.587785 0.000000 -0.809017
vn -0.587785 0.000000 -0.809017
vn -0.809017 0.000000 -0.587785
vn -0.809017 -0.000002 -0.587785
vn -0.951057 0.000000 -0.309017
vn -0.951057 -0.000002 -0.309017
vn -1.000000 0.000000 0.000000
vn -1.000000 -0.000000 0.000000
vn -0.951057 0.000000 0.309017
vn -0.951056 -0.000002 0.309017
vn -0.809017 0.000000 0.587785
vn -0.809017 -0.000006 0.587785
vn -0.587785 0.000000 0.809017
vn -0.587785 -0.000005 0.809017
vn -0.309017 0.000000 0.951057
vn -0.309017 -0.000002 0.951057
vn 0.000000 0.000000 1.000000
vn 0.000000 -0.000000 1.000000
vn 0.309017 0.000000 0.951056
vn 0.309017 -0.000002 0.951057
vn 0.587785 0.000000 0.809017
vn 0.587785 -0.000004 0.809017
vn 0.809017 0.000000 0.587785
vn 0.809017 -0.000005 0.587785
vn 0.951057 0.000000 0.309017
vn 0.951057 -0.000002 0.309017
vn 1.000000 0.000000 0.000001
vn 1.000000 -0.000000 0.000001
vn 0.000000 -1.000000 0.000000
vn 0.000000 -1.000000 0.000000
vn 0.000000 -1.000000 0.000000
vn 0.000000 -1.000000 0.000000
vn 0.000000 -1.000000 0.000000
vn 0.000000 -1.000000 0.000000
vn 0.000000 -1.000000 0.000000
vn 0.000000 -1.000000 0.000000
vn 0.000000 -1.000000 0.000000
vn 0.000000 -1.000000 0.000000
vn 0.000000 -1.000000 0.000000
vn 0.000000 -1.000000 0.000000
vn 0.000000 -1.000000 0.000000
vn 0.000000 -1.000000 0.000000
vn 0.000000 -1.000000 0.000000
vn 0.000000 -1.000000 0.000000
vn 0.000000 -1.000000 0.000000
vn 0.000000 -1.000000 0.000000
vn 0.000000 -1.000000 0.000000
vn 0.000000 -1.000000 0.000000
vn 0.000000 -1.000000 0.000000
vn 0.000000 1.000000 0.000000
vn 0.000000 1.000000 0.000000
vn 0.000000 1.000000 0.000000
vn 0.000000 1.000000 0.000000
vn 0.000000 1.000000 0.000000
vn 0.000000 1.000000 0.000000
vn 0.000000 1.000000 0.000000
vn 0.000000 1.000000 0.000000
vn 0.000000 1.000000 0.000000
vn 0.000000 1.000000 0.000000
vn 0.000000 1.000000 0.000000
vn 0.000000 1.000000 0.000000
vn 0.000000 1.000000 0.000000
vn 0.000000 1.000000 0.000000
vn 0.000000 1.000000 0.000000
vn 0.000000 1.000000 0.000000
vn 0.000000 1.000000 0.000000
vn 0.000000 1.000000 0.000000
vn 0.000000 1.000000 0.000000
vn 0.000000 1.000000 0.000000
vn 0.000000 1.000000 0.000000
vn 0.951057 0.000000 -0.309016
vn 0.809017 0.000000 -0.587785
vn 0.809017 0.000000 -0.587785
vn 0.951057 0.000000 -0.309016
vn 1.000000 0.000000 0.000001
vn 1.000000 0.000000 0.000001
vn 0.951056 0.000000 0.309017
vn 0.951057 0.000000 0.309017
vn 0.809017 0.000000 0.587785
vn 0.809017 0.000000 0.587785
vn 0.587785 0.000000 0.809017
vn 0.587785 0.000000 0.809017
vn 0.309017 0.000000 0.951057
vn 0.309017 0.000000 0.951057
vn 0.000000 0.000002 1.000000
vn 0.000000 0.000003 1.000000
vn -0.309017 0.000004 0.951057
vn -0.309017 0.000007 0.951057
vn -0.587785 0.000003 0.809017
vn -0.587785 0.000004 0.809017
vn -0.809017 0.000000 0.587785
vn -0.809017 0.000000 0.587785
vn -0.951057 0.000000 0.309017
vn -0.951056 0.000000 0.309017
vn -1.000000 0.000000 0.000000
vn -1.000000 0.000000 0.000000
vn -0.951057 0.000000 -0.309017
vn -0.951057 0.000000 -0.309017
vn -0.809017 0.000000 -0.587785
vn -0.809017 0.000000 -0.587785
vn -0.587785 0.000000 -0.809017
vn -0.587785 0.000000 -0.809017
vn -0.309017 0.000000 -0.951056
vn -0.309017 0.000000 -0.951056
vn -0.000000 0.000000 -1.000000
vn -0.000000 0.000000 -1.000000
vn 0.309017 0.000000 -0.951057
vn 0.309017 0.000000 -0.951057
vn 0.587785 0.000000 -0.809017
vn 0.587785 0.000000 -0.809017
vn 0.951057 0.000000 -0.309016
vn 0.809017 0.000000 -0.587785
vn 1.000000 0.000000 0.000001
vn 0.951057 0.000000 0.309017
vn 0.809017 0.000000 0.587785
vn 0.587785 0.000000 0.809017
vn 0.309017 0.000000 0.951057
vn 0.000000 -0.000000 1.000000
vn -0.309017 -0.000000 0.951056
vn -0.587785 0.000000 0.809017
vn -0.809017 0.000000 0.587785
vn -0.951057 0.000000 0.309017
vn -1.000000 0.000000 0.000000
vn -0.951057 0.000000 -0.309017
vn -0.809017 0.000000 -0.587785
vn -0.587785 0.000000 -0.809017
vn -0.309017 0.000000 -0.951056
vn -0.000000 0.000000 -1.000000
vn 0.309017 0.000000 -0.951057
vn 0.587785 0.000000 -0.809017
vn 0.809017 0.000000 -0.587785
vn 0.951057 0.000000 -0.309016
vn 1.000000 -0.000000 0.000001
vn 0.951057 0.000000 0.309017
vn 0.809017 0.000000 0.587785
vn 0.587785 0.000000 0.809017
vn 0.309017 -0.000000 0.951057
vn 0.000000 -0.000000 1.000000
vn -0.309017 -0.000000 0.951056
vn -0.587785 -0.000000 0.809017
vn -0.809017 -0.000000 0.587785
vn -0.951056 -0.000000 0.309017
vn -1.000000 0.000000 0.000000
vn -0.951057 -0.000000 -0.309017
vn -0.809017 0.000000 -0.587785
vn -0.587785 0.000000 -0.809017
vn -0.309017 0.000000 -0.951056
vn -0.000000 0.000000 -1.000000
vn 0.309017 0.000000 -0.951057
vn 0.587785 0.000000 -0.809017
s 1
g ConcreteSlab
usemtl lambert3SG
f 1/1/1 2/2/2 83/3/3 84/4/4
f 2/115/2 3/116/5 102/117/6 83/118/3
f 3/116/5 4/119/7 101/120/8 102/117/6
f 4/119/7 5/123/9 100/124/10 101/120/8
f 5/123/9 6/128/11 99/129/12 100/124/10
f 6/128/11 7/134/13 98/135/14 99/129/12
f 7/33/13 8/34/15 97/35/16 98/36/14
f 8/34/15 9/37/17 96/38/18 97/35/16
f 9/37/17 10/41/19 95/42/20 96/38/18
f 10/41/19 11/46/21 94/47/22 95/42/20
f 11/46/21 12/50/23 93/51/24 94/47/22
f 12/50/23 13/56/25 92/57/26 93/51/24
f 13/153/25 14/154/27 91/155/28 92/156/26
f 14/154/27 15/157/29 90/158/30 91/155/28
f 15/157/29 16/161/31 89/162/32 90/158/30
f 16/161/31 17/168/33 88/169/34 89/162/32
f 17/25/33 18/18/35 87/19/36 88/26/34
f 18/18/35 19/12/37 86/13/38 87/19/36
f 19/12/37 20/7/39 85/8/40 86/13/38
f 20/7/39 1/1/1 84/4/4 85/8/40
s 2
f 2/73/41 1/74/42 41/75/43
f 3/77/44 2/73/41 41/75/43
f 4/79/45 3/77/44 41/75/43
f 5/81/46 4/79/45 41/75/43
f 6/83/47 5/81/46 41/75/43
f 7/85/48 6/83/47 41/75/43
f 8/87/49 7/85/48 41/75/43
f 9/89/50 8/87/49 41/75/43
f 10/91/51 9/89/50 41/75/43
f 11/93/52 10/91/51 41/75/43
f 12/92/53 11/93/52 41/75/43
f 13/90/54 12/92/53 41/75/43
f 14/88/55 13/90/54 41/75/43
f 15/86/56 14/88/55 41/75/43
f 16/84/57 15/86/56 41/75/43
f 17/82/58 16/84/57 41/75/43
f 18/80/59 17/82/58 41/75/43
f 19/78/60 18/80/59 41/75/43
f 20/76/61 19/78/60 41/75/43
f 1/74/42 20/76/61 41/75/43
s 3
f 21/94/62 22/95/63 42/96/64
f 22/95/63 23/97/65 42/96/64
f 23/97/65 24/99/66 42/96/64
f 24/99/66 25/101/67 42/96/64
f 25/101/67 26/103/68 42/96/64
f 26/103/68 27/105/69 42/96/64
f 27/105/69 28/107/70 42/96/64
f 28/107/70 29/109/71 42/96/64
f 29/109/71 30/111/72 42/96/64
f 30/111/72 31/113/73 42/96/64
f 31/113/73 32/114/74 42/96/64
f 32/114/74 33/112/75 42/96/64
f 33/112/75 34/110/76 42/96/64
f 34/110/76 35/108/77 42/96/64
f 35/108/77 36/106/78 42/96/64
f 36/106/78 37/104/79 42/96/64
f 37/104/79 38/102/80 42/96/64
f 38/102/80 39/100/81 42/96/64
f 39/100/81 40/98/82 42/96/64
f 40/98/82 21/94/62 42/96/64
s 1
f 44/15/83 43/14/84 22/20/85 21/21/86
f 45/22/87 44/15/83 21/21/86 40/27/88
f 46/28/89 45/22/87 40/27/88 39/30/90
f 47/31/91 46/28/89 39/30/90 38/32/92
f 48/187/93 47/189/91 38/191/92 37/190/94
f 49/184/95 48/187/93 37/190/94 36/188/96
f 50/177/97 49/184/95 36/188/96 35/185/98
f 51/172/99 50/177/97 35/185/98 34/178/100
f 52/173/101 51/172/99 34/178/100 33/179/102
f 53/68/103 52/71/101 33/72/102 32/70/104
f 54/64/105 53/68/103 32/70/104 31/69/106
f 55/60/107 54/64/105 31/69/106 30/65/108
f 56/54/109 55/60/107 30/65/108 29/61/110
f 57/55/111 56/54/109 29/61/110 28/62/112
f 58/66/113 57/55/111 28/62/112 27/67/114
f 59/146/115 58/148/113 27/152/114 26/149/116
f 60/143/117 59/146/115 26/149/116 25/147/118
f 61/138/119 60/143/117 25/147/118 24/144/120
f 62/132/121 61/138/119 24/144/120 23/139/122
f 43/133/84 62/132/121 23/139/122 22/140/85
f 64/10/123 63/9/124 43/14/84 44/15/83
f 65/16/125 64/10/123 44/15/83 45/22/87
f 66/23/126 65/16/125 45/22/87 46/28/89
f 67/29/127 66/23/126 46/28/89 47/31/91
f 68/183/128 67/186/127 47/189/91 48/187/93
f 69/176/129 68/183/128 48/187/93 49/184/95
f 70/171/130 69/176/129 49/184/95 50/177/97
f 71/164/131 70/171/130 50/177/97 51/172/99
f 72/165/132 71/164/131 51/172/99 52/173/101
f 73/174/133 72/165/132 52/173/101 53/180/103
f 74/59/134 73/63/133 53/68/103 54/64/105
f 75/53/135 74/59/134 54/64/105 55/60/107
f 76/49/136 75/53/135 55/60/107 56/54/109
f 77/44/137 76/49/136 56/54/109 57/55/111
f 78/145/138 77/150/137 57/151/111 58/148/113
f 79/142/139 78/145/138 58/148/113 59/146/115
f 80/137/140 79/142/139 59/146/115 60/143/117
f 81/131/141 80/137/140 60/143/117 61/138/119
f 82/126/142 81/131/141 61/138/119 62/132/121
f 63/127/124 82/126/142 62/132/121 43/133/84
f 84/4/4 83/3/3 103/5/143 104/6/144
f 85/8/40 84/4/4 104/6/144 105/11/145
f 86/13/38 85/8/40 105/11/145 106/17/146
f 87/19/36 86/13/38 106/17/146 107/24/147
f 88/169/34 87/181/36 107/182/147 108/175/148
f 89/162/32 88/169/34 108/175/148 109/170/149
f 90/158/30 89/162/32 109/170/149 110/163/150
f 91/155/28 90/158/30 110/163/150 111/159/151
f 92/156/26 91/155/28 111/159/151 112/160/152
f 93/166/24 92/156/26 112/160/152 113/167/153
f 94/47/22 93/51/24 113/58/153 114/52/154
f 95/42/20 94/47/22 114/52/154 115/48/155
f 96/38/18 95/42/20 115/48/155 116/43/156
f 97/35/16 96/38/18 116/43/156 117/39/157
f 98/36/14 97/35/16 117/39/157 118/40/158
f 99/129/12 98/135/14 118/141/158 119/136/159
f 100/124/10 99/129/12 119/136/159 120/130/160
f 101/120/8 100/124/10 120/130/160 121/125/161
f 102/117/6 101/120/8 121/125/161 122/121/162
f 83/118/3 102/117/6 122/121/162 103/122/143
f 104/6/144 103/5/143 63/9/124 64/10/123
f 105/11/145 104/6/144 64/10/123 65/16/125
f 106/17/146 105/11/145 65/16/125 66/23/126
f 107/24/147 106/17/146 66/23/126 67/29/127
f 108/175/148 107/182/147 67/186/127 68/183/128
f 109/170/149 108/175/148 68/183/128 69/176/129
f 110/163/150 109/170/149 69/176/129 70/171/130
f 111/159/151 110/163/150 70/171/130 71/164/131
f 112/160/152 111/159/151 71/164/131 72/165/132
f 113/167/153 112/160/152 72/165/132 73/174/133
f 114/52/154 113/58/153 73/63/133 74/59/134
f 115/48/155 114/52/154 74/59/134 75/53/135
f 116/43/156 115/48/155 75/53/135 76/49/136
f 117/39/157 116/43/156 76/49/136 77/44/137
f 118/40/158 117/39/157 77/44/137 78/45/138
f 119/136/159 118/141/158 78/145/138 79/142/139
f 120/130/160 119/136/159 79/142/139 80/137/140
f 121/125/161 120/130/160 80/137/140 81/131/141
f 122/121/162 121/125/161 81/131/141 82/126/142
f 103/122/143 122/121/162 82/126/142 63/127/124
